<?xml version="1.0" standalone="no"?>
<!DOCTYPE svg PUBLIC "-//W3C//DTD SVG 1.1//EN" "http://www.w3.org/Graphics/SVG/1.1/DTD/svg11.dtd">
<svg xmlns="http://www.w3.org/2000/svg">
<metadata>Copyright (C) 2022 by original authors @ fontello.com</metadata>
<defs>
<font id="truework" horiz-adv-x="1000" >
<font-face font-family="truework" font-weight="400" font-stretch="normal" units-per-em="1000" ascent="850" descent="-150" />
<missing-glyph horiz-adv-x="1000" />
<glyph glyph-name="calendar" unicode="&#xe800;" d="M352 300c0 12-10 23-22 23h-79c-13 0-23-11-23-23v-79c0-13 10-23 23-23h79c12 0 22 10 22 23v79z m198 0c0 12-10 23-23 23h-79c-12 0-22-11-22-23v-79c0-13 10-23 22-23h79c13 0 23 10 23 23v79z m197 0c0 12-10 23-22 23h-79c-13 0-23-11-23-23v-79c0-13 10-23 23-23h79c12 0 22 10 22 23v79z m-395-197c0 12-10 22-22 22h-79c-13 0-23-10-23-22v-79c0-13 10-23 23-23h79c12 0 22 10 22 23v79z m198 0c0 12-10 22-23 22h-79c-12 0-22-10-22-22v-79c0-13 10-23 22-23h79c13 0 23 10 23 23v79z m197 0c0 12-10 22-22 22h-79c-13 0-23-10-23-22v-79c0-13 10-23 23-23h79c12 0 22 10 22 23v79z m141 636v-121c0-54-44-98-98-98h-63c-54 0-99 44-99 98v121h-281v-121c0-54-45-98-99-98h-62c-55 0-99 44-99 98v121c-48-1-87-41-87-89v-707c0-50 40-90 89-90h797c49 0 89 40 89 90v707c0 48-39 88-87 89z m-29-752c0-22-17-39-38-39h-668c-22 0-39 17-39 39v365c0 21 17 39 39 39h668c21 0 38-18 38-39l0-365z m-674 598h62c19 0 34 15 34 33v198c0 19-15 34-34 34h-62c-18 0-33-15-33-34v-198c0-18 15-33 33-33z m541 0h62c19 0 34 15 34 33v198c0 19-15 34-34 34h-62c-18 0-34-15-34-34v-198c0-18 16-33 34-33z" horiz-adv-x="1000" />

<glyph glyph-name="check" unicode="&#xe801;" d="M434-73c-11-11-26-17-41-17-15 0-30 6-41 17l-327 326c-34 34-34 89 0 123l41 41c34 34 89 34 123 0l204-204 551 551c34 34 89 34 123 0l41-41c34-34 34-88 0-122l-674-674z" horiz-adv-x="1133" />

<glyph glyph-name="facebook" unicode="&#xe802;" d="M440 351h-136v-501h-206v501h-98v176h98v114c0 81 38 209 208 209l152-1v-170h-110c-18 0-44-10-44-48v-104h154l-18-176z" horiz-adv-x="458" />

<glyph glyph-name="flame" unicode="&#xe803;" d="M189-150c-112 366 123 500 123 500-16-195 95-348 95-348 41 13 119 70 119 70 0-70-41-222-41-222 0 0 144 111 189 296 45 185-86 371-86 371 8-131-37-260-123-358 4 5 8 11 10 17 16 31 41 112 26 300-20 263-259 374-259 374 21-160-41-197-186-502-144-305 133-498 133-498z" horiz-adv-x="700" />

<glyph glyph-name="location" unicode="&#xe804;" d="M389 850c-214 0-389-162-389-362 0-248 348-612 363-627 14-15 38-15 52 0 15 15 363 379 363 627 0 200-175 362-389 362z m0-544c-108 0-196 81-196 182 0 100 88 182 196 182 108 0 196-82 196-182 0-101-88-182-196-182z" horiz-adv-x="778" />

<glyph glyph-name="loupe" unicode="&#xe805;" d="M440 850c-242 0-440-198-440-440 0-243 198-441 440-441 243 0 441 198 441 441 0 242-198 440-441 440z m0-799c-198 0-359 161-359 359 0 198 161 359 359 359 198 0 360-161 360-359 0-198-162-359-360-359z m548-132l-233 234c-16 15-42 15-57 0-16-16-16-42 0-58l233-233c8-8 18-12 28-12 11 0 21 4 29 12 16 16 16 41 0 57z" horiz-adv-x="1000" />

<glyph glyph-name="man-women" unicode="&#xe806;" d="M1060 141l82-215 41 117-20 22c-15 23-10 48 18 52 10 2 21 1 31 1 11 0 23 1 33-1 26-6 29-32 16-52l-20-22 41-117 74 215c54-48 173-58 231-90 82-46 80-119 98-201l-590 0a62 62 0 0 1-2 16c-6 23-9 47-13 71-6 49-13 99-41 150-5 10-12 19-20 27 15 7 29 16 41 27z m-292-67c-27 53-35 73-74 115 73-28 135-32 190-66 35-22 87-39 101-65 35-66 30-138 48-208h-1033c19 70 14 142 48 208 15 26 68 43 103 65 55 34 117 38 190 66-39-42-47-62-74-115l76 2 170-136 179 136 76-2z m-374 189v-46l-36-76 159-123 160 124-50 79v43c61 3 113 8 142 15 37 10 68 23 90 44-34 16-55 43-67 79-29 84-2 163-15 254-17 121-96 162-175 154-101 82-281 34-330-107-24-71-9-126-12-198-4-97-29-153-84-174 19-22 46-40 82-51 27-9 77-15 136-17z m651 22c-7 0-13 1-20 5-9 5-15 13-19 22-9 20-16 72 7 87l-5 3 0 5c-1 11-1 24-1 37-1 49-2 108-43 120l-17 5 11 14c33 39 67 73 102 100 38 30 78 49 117 55 39 6 78-3 114-31 10-8 20-18 30-30 38-3 69-23 91-52 14-17 24-37 30-58a196 196 0 0 0 8-66c-2-40-17-79-47-107 5-1 10-2 14-4 17-9 18-28 13-44-4-13-10-29-15-42-6-17-16-21-34-19-40-177-285-183-336 0z" horiz-adv-x="1685" />

<glyph glyph-name="phone" unicode="&#xe807;" d="M838 161c-4 3-9 7-13 10-23 18-47 35-71 52-5 3-9 6-14 10-30 21-57 31-83 31-34 0-64-19-89-56-11-17-24-25-40-25-10 0-21 3-33 8-97 44-166 112-205 200-19 43-13 72 20 94 19 13 55 37 52 84-2 52-118 210-167 228-21 8-42 8-65 0-56-19-96-52-116-96-20-42-19-92 3-143 60-150 146-280 254-387 106-106 235-192 386-257 13-6 28-9 38-11 3-1 7-2 9-2 1-1 2-1 3-1l2 0c0 0 0 0 0 0 70 0 155 65 181 139 23 64-18 96-52 122z" horiz-adv-x="944" />

<glyph glyph-name="telegram" unicode="&#xe808;" d="M425 191l-18-279c26 0 37 12 50 27l120 127 250-202c45-28 77-14 90 46l163 849 0 0c15 75-24 104-69 86l-961-408c-65-28-64-69-11-87l246-85 571 396c26 20 51 9 31-11l-462-459z" horiz-adv-x="1083" />

<glyph glyph-name="cancel" unicode="&#xe809;" d="M469 819q194 0 331-137t138-332-138-331-331-138-331 138-138 331 138 332 331 137z m0-834q151 0 258 107t107 258-107 258-258 107-258-107-107-258 107-258 258-107z m36 365l139-137q12-13 5-29t-24-16q-11 0-19 7l-137 139-138-139q-7-7-18-7-17 0-24 16t5 29l139 137-139 138q-18 17 1 36t36 1l138-138 137 138q18 18 37-1t1-36z" horiz-adv-x="938" />

<glyph glyph-name="viber" unicode="&#xe80a;" d="M579 573c-12-1-38-1-47-27-4-12-3-23 2-32 7-12 22-16 35-18 48-8 73-35 78-84 2-23 18-39 38-39h0c1 0 3 0 4 0 24 3 36 20 35 52 0 33-17 71-47 101-30 31-65 48-98 47z m304-450c-4 4-9 7-13 11-23 18-48 36-72 52-4 4-9 7-14 11-31 21-58 31-84 31-35 0-65-19-90-57-11-17-25-25-41-25-10 0-21 3-34 8-98 45-168 113-208 203-20 44-13 73 21 96 19 13 55 37 53 84-3 54-121 214-170 232-21 8-43 8-66 0-57-19-98-53-118-97-20-43-19-93 3-146 61-151 148-284 258-393 107-106 239-194 391-260 14-6 29-9 39-11 4-1 7-2 9-2 1-1 3-1 4-1l1 0c0 0 0 0 0 0 72 0 158 66 185 140 23 66-20 98-54 124z m-336 623c4 0 8-1 11-1 211-33 309-133 336-346 0-4 0-8 0-13 0-16 1-51 38-52l1 0c12 0 21 4 28 11 12 12 11 30 10 44 0 4 0 7 0 10 2 218-186 416-404 423-1 0-2 0-3 0 0 0-1 0-2 0-3 0-5 0-8 0-3 1-7 1-11 1-35 0-42-25-42-40-2-33 30-36 46-37z m298-328c1 136-115 261-258 278-3 0-6 1-10 1-7 2-14 3-21 3-30 0-38-21-40-33-2-12 0-22 6-30 10-13 27-16 41-17 4-1 7-2 11-2 128-29 172-74 193-202 1-3 1-7 1-11 1-15 3-47 37-47h0c3 0 6 0 9 1 32 4 31 33 30 47 0 4 0 8 0 11 1 0 1 1 1 1z" horiz-adv-x="1000" />

<glyph glyph-name="wallet" unicode="&#xe80b;" d="M1024 420h-6v59c0 68-50 124-117 133v72c0 73-61 134-134 134h-624c-77 0-142-62-143-140v-661c0-74 61-135 135-135h749c73 0 134 61 134 135v64h6c42 0 76 34 76 76v187c0 42-34 76-76 76z m-942 255c0 34 28 61 61 61h622c30 0 53-23 53-52v-71h-675c-33 0-61 28-61 62z m936-512h-193c-48 0-88 40-88 88 0 48 40 87 88 87h193v-175z" horiz-adv-x="1100" />

<glyph glyph-name="man" unicode="&#xe80c;" d="M381 271c-26 23-46 39-51 87h-3a36 36 0 0 0-18 5 50 50 0 0 0-20 25c-9 21-17 77 7 93l-5 3 0 7c-1 11-1 24-2 39 0 53-2 117-44 130l-18 5 12 15a694 694 0 0 0 106 108c41 33 83 54 124 60a148 148 0 0 0 120-33 226 226 0 0 0 32-33 137 137 0 0 0 96-56 195 195 0 0 0 31-63 215 215 0 0 0 8-71 172 172 0 0 0-50-116 35 35 0 0 0 16-4c18-10 18-31 14-48-5-14-11-31-16-45-7-19-17-23-36-21-1-47-23-59-52-87 1-71-253-63-251 0z m-13-58l75-219 38 128-18 21c-14 20-9 43 16 47a177 177 0 0 0 28 1 155 155 0 0 0 31-1c24-5 27-29 15-47l-19-21 38-128 69 219c49-45 223-54 278-84 75-42 73-204 90-279h-1009c16 74 15 237 90 279 67 37 223 34 278 84z" horiz-adv-x="1009" />

<glyph glyph-name="women" unicode="&#xe80d;" d="M251 289a179 179 0 0 0-84 53c56 21 82 88 86 187 2 74-13 98 12 170 50 145 235 194 338 110 80 8 161-33 179-158 13-92-15-151 14-236a133 133 0 0 1 69-82c-22-21-54-34-92-44-30-7-83-13-145-16v-43l61-81-173-138-173 137 46 77v47c-60 3-111 8-138 17z m520-210a603 603 0 0 1-99 143c279-108 281-76 360-372h-1032c79 296 82 264 360 372a603 603 0 0 1-100-142l78 1 174-139 182 139 78-1z" horiz-adv-x="1032" />

<glyph glyph-name="eye" unicode="&#xe80e;" d="M929 314q-85 132-213 197 34-58 34-125 0-103-73-177t-177-73-177 73-73 177q0 67 34 125-128-65-213-197 75-114 187-182t242-68 243 68 186 182z m-402 215q0 11-8 19t-19 7q-70 0-120-50t-50-119q0-11 8-19t19-8 19 8 8 19q0 48 34 82t82 34q11 0 19 8t8 19z m473-215q0-19-11-38-78-129-210-206t-279-77-279 77-210 206q-11 19-11 38t11 39q78 128 210 205t279 78 279-78 210-205q11-20 11-39z" horiz-adv-x="1000" />

<glyph glyph-name="menu" unicode="&#xf0c9;" d="M857 100v-71q0-15-10-25t-26-11h-785q-15 0-25 11t-11 25v71q0 15 11 25t25 11h785q15 0 26-11t10-25z m0 286v-72q0-14-10-25t-26-10h-785q-15 0-25 10t-11 25v72q0 14 11 25t25 10h785q15 0 26-10t10-25z m0 285v-71q0-14-10-25t-26-11h-785q-15 0-25 11t-11 25v71q0 15 11 26t25 10h785q15 0 26-10t10-26z" horiz-adv-x="857.1" />

<glyph glyph-name="angle-left" unicode="&#xf104;" d="M350 546q0-7-6-12l-219-220 219-219q6-6 6-13t-6-13l-28-28q-5-5-12-5t-13 5l-260 261q-6 5-6 12t6 13l260 260q5 6 13 6t12-6l28-28q6-5 6-13z" horiz-adv-x="357.1" />

<glyph glyph-name="angle-right" unicode="&#xf105;" d="M332 314q0-7-5-12l-261-261q-5-5-12-5t-13 5l-28 28q-6 6-6 13t6 13l219 219-219 220q-6 5-6 12t6 13l28 28q5 6 13 6t12-6l261-260q5-5 5-13z" horiz-adv-x="357.1" />

<glyph glyph-name="angle-up" unicode="&#xf106;" d="M600 189q0-7-6-12l-28-28q-5-6-12-6t-13 6l-220 219-219-219q-5-6-13-6t-12 6l-28 28q-6 5-6 12t6 13l260 260q5 6 12 6t13-6l260-260q6-5 6-13z" horiz-adv-x="642.9" />

<glyph glyph-name="angle-down" unicode="&#xf107;" d="M600 439q0-7-6-12l-260-261q-5-5-13-5t-12 5l-260 261q-6 5-6 12t6 13l28 28q5 6 12 6t13-6l219-219 220 219q5 6 13 6t12-6l28-28q6-5 6-13z" horiz-adv-x="642.9" />
</font>
</defs>
</svg>
