<?xml version="1.0" encoding="UTF-8"?>
<svg xmlns="http://www.w3.org/2000/svg" width="195" height="37" viewBox="0 0 195 37" fill="none">
  <path fill-rule="evenodd" clip-rule="evenodd" d="M37.5638 15.8206C37.72 16.1318 39.4766 14.2907 39.5937 14.1351C40.7556 12.548 40.7101 10.4503 40.665 8.37728V8.37718V8.37708V8.37697V8.37687V8.37676V8.37666V8.37656V8.37645V8.37634V8.37624V8.37614C40.6564 7.97713 40.6477 7.57903 40.6477 7.18567C40.6477 3.21825 37.4467 0.443659 34.7142 0.417728C34.7142 0.417728 24.5648 0.15842 23.1205 1.19565V24.1444H27.7267V16.5726C27.7267 16.5726 29.4834 17.0134 32.9966 16.8319L36.1976 24.1444H40.7648V22.4589L37.5638 15.8206ZM35.8853 8.61186L35.8815 8.73998C35.8644 9.3287 35.8458 9.96964 35.573 10.4529C35.2802 10.9716 34.7923 11.1531 34.3434 11.2309C33.8749 11.3087 33.426 11.3346 32.9576 11.3087C32.7038 11.3087 27.7658 11.2309 27.7658 11.1012V6.09657H28.039C29.3467 6.07064 30.6544 6.07064 31.9622 6.07064H33.5431C34.0311 6.07064 34.5385 6.07064 34.9875 6.27809C35.7487 6.64112 35.9048 7.62649 35.8853 8.61186ZM6.8108 6.76963H0V1.19415H18.557V6.76963H11.7462V24.1444H6.90951L6.8108 6.76963ZM168.383 15.8305C168.573 16.0895 170.291 14.2889 170.406 14.1351C171.568 12.548 171.523 10.4504 171.478 8.37729C171.469 7.9779 171.46 7.57941 171.46 7.18567C171.46 3.21825 168.259 0.443659 165.527 0.417728C165.527 0.417728 155.377 0.15842 153.933 1.19565V24.1444H158.559V16.5726C158.559 16.5726 160.316 17.0134 163.829 16.8319L167.01 24.1444H171.577V22.4589C171.577 22.4589 168.537 16.1156 168.383 15.8305ZM166.714 8.73996L166.717 8.61186C166.737 7.62649 166.581 6.64112 165.82 6.27809C165.371 6.07064 164.863 6.07064 164.375 6.07064H162.794C161.487 6.07064 160.179 6.07064 158.871 6.09657H158.598V11.1012C158.598 11.2309 163.536 11.3087 163.79 11.3087C164.258 11.3346 164.707 11.3087 165.176 11.2309C165.624 11.1531 166.112 10.9716 166.405 10.4529C166.678 9.96964 166.697 9.32868 166.714 8.73996ZM45.9376 16.473C46.1893 19.5309 47.5253 22.1706 49.5582 23.5819C50.9523 24.5489 52.5205 24.8364 54.0695 24.9148C55.6378 24.9671 57.206 25.0194 58.755 24.6012C61.969 23.7649 64.4666 20.3672 64.486 15.8196C64.4989 14.0594 64.4946 12.2876 64.4903 10.5197V10.5179C64.4881 9.63509 64.486 8.75326 64.486 7.87432V0.791534H59.6843V16.1332C59.2971 19.4525 55.8507 19.3479 55.8507 19.3479H54.1469C51.1072 19.2956 50.7199 16.2116 50.7199 16.2116V0.791534H45.9376V16.473ZM69.968 24.1444V0.791534H86.6997V6.31838H74.5938V9.9251H84.1604V15.5038H74.6923V18.384H86.6997V24.1444H69.968ZM110.179 1.19415H113.57L116.903 15.9924L120.507 1.19415H124.422V2.15474L118.666 24.1444H115.372L111.865 9.68366L108.435 24.1444H105.14L99.1719 2.49224V1.19415H103.241L106.632 15.9924L110.179 1.19415ZM181.559 1.19415H176.747V24.1444H181.48V15.5058H184.577L190.198 24.1444H194.695V22.4682L188.463 12.7466L194.695 2.68978V1.19415H190.159L184.321 10.0906H181.559V1.19415ZM140.437 0.388916H136.095C131.83 0.388916 128.379 4.95383 128.379 10.5959V14.3401C128.379 19.9821 131.83 24.5471 136.095 24.5471H140.437C144.702 24.5471 148.153 19.9821 148.153 14.3401V10.5959C148.153 4.95383 144.702 0.388916 140.437 0.388916ZM143.617 14.0324C143.617 16.8534 141.891 19.1358 139.759 19.1358H136.929C134.796 19.1358 133.071 16.8534 133.071 14.0324V10.9805C133.071 8.15953 134.796 5.87707 136.929 5.87707H139.759C141.891 5.87707 143.617 8.15953 143.617 10.9805V14.0324ZM191.658 29.7813H192.866C194.033 29.7813 195 30.9876 195 32.5019V33.5029C195 34.9915 194.053 36.2235 192.866 36.2235H191.658C190.49 36.2235 189.524 35.0172 189.524 33.5029V32.5019C189.524 31.0133 190.47 29.7813 191.658 29.7813ZM192.664 34.7862C193.248 34.7862 193.731 34.1702 193.731 33.4259V32.6046C193.731 31.8602 193.248 31.2443 192.664 31.2443H191.879C191.295 31.2443 190.812 31.8602 190.812 32.6046V33.4259C190.812 34.1702 191.295 34.7862 191.879 34.7862H192.664ZM171.309 30.4285H0V36.0567H171.309V30.4285ZM175.832 30.184H177.049V36.2235H175.832V30.184ZM178.27 36.2235V30.184H179.497L181.79 33.556V30.184H183.138V36.2235H182.072L179.517 32.7004V36.2235H178.27ZM188.614 30.184V31.5932H185.617V32.3733H187.688V33.7825H185.617V36.2235H184.355V30.184H184.474H185.617H188.614Z" fill="#135E61"></path>
</svg>
